<svg xmlns="http://www.w3.org/2000/svg" xmlns:xlink="http://www.w3.org/1999/xlink">
    <symbol id="add_button" viewBox="0 0 42 42">
        <path d="M37.059,16H26V4.941C26,2.224,23.718,0,21,0s-5,2.224-5,4.941V16H4.941C2.224,16,0,18.282,0,21s2.224,5,4.941,5H16v11.059C16,39.776,18.282,42,21,42s5-2.224,5-4.941V26h11.059C39.776,26,42,23.718,42,21S39.776,16,37.059,16z"/>
    </symbol>
    <symbol id="delete_button" viewBox="0 0 408.483 408.483">
		<path d="M87.748,388.784c0.461,11.01,9.521,19.699,20.539,19.699h191.911c11.018,0,20.078-8.689,20.539-19.699l13.705-289.316
			H74.043L87.748,388.784z M247.655,171.329c0-4.61,3.738-8.349,8.35-8.349h13.355c4.609,0,8.35,3.738,8.35,8.349v165.293
			c0,4.611-3.738,8.349-8.35,8.349h-13.355c-4.61,0-8.35-3.736-8.35-8.349V171.329z M189.216,171.329
			c0-4.61,3.738-8.349,8.349-8.349h13.355c4.609,0,8.349,3.738,8.349,8.349v165.293c0,4.611-3.737,8.349-8.349,8.349h-13.355
			c-4.61,0-8.349-3.736-8.349-8.349V171.329L189.216,171.329z M130.775,171.329c0-4.61,3.738-8.349,8.349-8.349h13.356
			c4.61,0,8.349,3.738,8.349,8.349v165.293c0,4.611-3.738,8.349-8.349,8.349h-13.356c-4.61,0-8.349-3.736-8.349-8.349V171.329z"/>
		<path d="M343.567,21.043h-88.535V4.305c0-2.377-1.927-4.305-4.305-4.305h-92.971c-2.377,0-4.304,1.928-4.304,4.305v16.737H64.916
			c-7.125,0-12.9,5.776-12.9,12.901V74.47h304.451V33.944C356.467,26.819,350.692,21.043,343.567,21.043z"/>
    </symbol>
    <symbol id="edit_button" viewBox="0 0 528.899 528.899">
	    <path d="M328.883,89.125l107.59,107.589l-272.34,272.34L56.604,361.465L328.883,89.125z M518.113,63.177l-47.981-47.981
		    c-18.543-18.543-48.653-18.543-67.259,0l-45.961,45.961l107.59,107.59l53.611-53.611
		    C532.495,100.753,532.495,77.559,518.113,63.177z M0.3,512.69c-1.958,8.812,5.998,16.708,14.811,14.565l119.891-29.069
		    L27.473,390.597L0.3,512.69z"/>
    </symbol>
    <symbol id="save_button" viewBox="0 0 528.899 528.899">
		<path d="M153.029,90.223h182.404c5.427,0,9.873-4.43,9.873-9.869V0H143.137v80.354C143.137,85.793,147.571,90.223,153.029,90.223z"/>
		<path d="M480.817,122.864L377.88,19.494v60.859c0,23.404-19.043,42.447-42.447,42.447H153.029
			c-23.409,0-42.447-19.043-42.447-42.447V0H44.823C20.068,0,0.002,20.07,0.002,44.808v398.831
			c0,24.736,20.066,44.808,44.821,44.808h398.813c24.74,0,44.808-20.068,44.808-44.808V141.325
			C488.444,134.392,485.698,127.758,480.817,122.864z M412.461,385.666c0,14.434-11.703,26.154-26.168,26.154H102.137
			c-14.451,0-26.153-11.722-26.153-26.154V249.303c0-14.43,11.702-26.148,26.153-26.148h284.156				c14.465,0,26.168,11.72,26.168,26.148V385.666z"/>
		<path d="M356.497,265.131H131.949c-9.008,0-16.294,7.273-16.294,16.28s7.286,16.28,16.294,16.28h224.549
			c8.988,0,16.277-7.273,16.277-16.28S365.487,265.131,356.497,265.131z"/>
		<path d="M323.936,330.264H164.508c-8.994,0-16.28,7.273-16.28,16.28c0,8.989,7.286,16.28,16.28,16.28h159.427
			c8.994,0,16.281-7.291,16.281-16.28C340.217,337.537,332.93,330.264,323.936,330.264z"/>
    </symbol>
</svg>